# xmcd CD database file
#
# Track frame offsets:
#	225
#	18020
#	33363
#	48391
#	64317
#	77961
#	96239
#	112265
#	123375
#	137771
#	155186
#	168300
#
# Disc length: 2445 seconds
#
# Revision: 0
# Processed by: cddbd v1.4PL0 Copyright (c) Steve Scherf et al.
# Submitted via: CDex 1.50
#
DISCID=a6098a0c
DTITLE=Bobek Pavel - Jsem pouhy znamy
DYEAR=2000
DGENRE=Country
TTITLE0=Zavolam a jen ozvena se vrati
TTITLE1=Dite kvetin
TTITLE2=Sel jsem kolem
TTITLE3=Kamen mudrcu
TTITLE4=Zima ma mne v drapech svych
TTITLE5=Pouhy znamy
TTITLE6=Motylek rano
TTITLE7=Ja morem plul
TTITLE8=Davnej happening
TTITLE9=Divoka ruze
TTITLE10=Kral v podhradi
TTITLE11=Pane muj
EXTD=YEAR: 2000
EXTT0=
EXTT1=
EXTT2=
EXTT3=
EXTT4=
EXTT5=
EXTT6=
EXTT7=
EXTT8=
EXTT9=
EXTT10=
EXTT11=
PLAYORDER=
